<svg xmlns="http://www.w3.org/2000/svg" width="900" height="300" viewBox="0 0 900 300"><g fill="#784aba"><path d="M11 107A70 70 0 0 1 70 0c38 0 70 31 70 70q0 20-11 37l-26-26 2-11c0-19-15-35-35-35S35 50 35 70q0 6 2 11zm59 12 67 67 2-18q0-29-20-49L70 70l-49 49a66 66 0 0 0-21 50q0 9 2 18zm34 56c-3 16-17 29-34 29s-31-12-34-28L8 202a70 70 0 0 0 123 1zM879 125q19-17 20-45c0-33-26-60-60-60s-60 26-60 60q0 27 20 45a61 61 0 0 0-20 45c0 33 26 60 60 60s60-26 60-60q1-28-20-45m-39 70c-13 0-25-11-25-25 0-13 11-25 25-25s25 11 25 25c0 13-12 25-25 25m0-90c-13 0-25-11-25-25 0-13 11-25 25-25s25 11 25 25c0 13-12 25-25 25"/></g><g fill="#ede0ff"><path d="M465 90c-38 0-70 31-70 70v140c19 0 35-15 35-35v-44q15 9 35 9c38 0 70-31 70-70s-32-70-70-70m0 105c-19 0-35-15-35-35s15-35 35-35 35 15 35 35-16 35-35 35M625 90q-18 0-35 9V55c0-19-15-35-35-35v140c0 38 31 70 70 70s70-31 70-70-32-70-70-70m0 105c-19 0-35-15-35-35s15-35 35-35 35 15 35 35-16 35-35 35M340 90v70c0 19-15 35-35 35s-35-15-35-35V90c0-19-15-35-35-35v105c0 38 31 70 70 70s70-31 70-70V55c-20 0-35 15-35 35M732 95q-9 0-17-3v138c19 0 35-15 35-35V91q-9 4-18 4"/><circle cx="732.5" cy="45" r="25"/></g></svg>